<?xml version="1.0" encoding="UTF-8"?>
<svg version="1.1" xmlns="http://www.w3.org/2000/svg" width="1024" height="1024">
<path d="M0 0 C0.8859082 0.23267578 1.77181641 0.46535156 2.68457031 0.70507812 C55.55424712 14.83458888 104.93071638 41.6440508 148 75 C148.92941406 75.71542969 149.85882812 76.43085938 150.81640625 77.16796875 C156.15158765 81.35095135 161.1868995 85.80819477 166.1640625 90.41015625 C167.6449981 91.76258091 169.1304371 93.11114156 170.65698242 94.41186523 C176.85578051 99.69737862 182.58163152 105.43010339 188.32739258 111.19702148 C190.058947 112.933936 191.79578359 114.66543889 193.53320312 116.39648438 C199.23423587 122.09379045 204.81575648 127.8208465 210 134 C210.80824219 134.9384375 211.61648438 135.876875 212.44921875 136.84375 C231.93085314 159.96331612 248.84116111 185.29858487 263 212 C263.48017578 212.90524414 263.96035156 213.81048828 264.45507812 214.74316406 C289.07478069 261.62108751 303.76286609 312.50672172 310 365 C310.11859375 365.97275879 310.2371875 366.94551758 310.359375 367.94775391 C316.52632555 420.98169323 310.65044266 475.62787953 297 527 C296.76732422 527.8859082 296.53464844 528.77181641 296.29492188 529.68457031 C282.16541112 582.55424712 255.3559492 631.93071638 222 675 C221.28457031 675.92941406 220.56914063 676.85882812 219.83203125 677.81640625 C215.64904865 683.15158765 211.19180523 688.1868995 206.58984375 693.1640625 C205.23741909 694.6449981 203.88885844 696.1304371 202.58813477 697.65698242 C197.30262138 703.85578051 191.56989661 709.58163152 185.80297852 715.32739258 C184.066064 717.058947 182.33456111 718.79578359 180.60351562 720.53320312 C174.90620955 726.23423587 169.1791535 731.81575648 163 737 C162.0615625 737.80824219 161.123125 738.61648438 160.15625 739.44921875 C137.03668388 758.93085314 111.70141513 775.84116111 85 790 C84.09475586 790.48017578 83.18951172 790.96035156 82.25683594 791.45507812 C35.36777245 816.08063129 -15.50088111 830.7370571 -68 837 C-68.95680664 837.11859375 -69.91361328 837.2371875 -70.89941406 837.359375 C-103.35581987 841.21149522 -137.67767542 840.67103894 -170 836 C-171.23411621 835.82307617 -172.46823242 835.64615234 -173.73974609 835.46386719 C-217.82811041 828.96261596 -259.92295507 816.27033743 -300.33984375 797.53515625 C-324.38865236 786.39521096 -343.95509006 785.98617194 -369.39453125 793.109375 C-371.3658033 793.64020988 -373.33771838 794.16866181 -375.31022644 794.69488525 C-380.44442916 796.07107378 -385.56969078 797.47794484 -390.69348145 798.89233398 C-395.8812215 800.31885591 -401.07653312 801.71719932 -406.27148438 803.1171875 C-412.13398986 804.69831387 -417.99571522 806.28183095 -423.85151672 807.88763428 C-456.0823993 816.72390316 -456.0823993 816.72390316 -464.1875 816.5 C-464.93596191 816.48718994 -465.68442383 816.47437988 -466.45556641 816.46118164 C-481.81512847 815.90758031 -495.29760337 808.82913173 -505.74609375 797.7265625 C-516.99758358 784.11557481 -520.36463734 769.21864155 -519 752 C-518.20354433 746.44042357 -516.66037868 741.0727971 -515.12890625 735.6796875 C-514.71951697 734.17201193 -514.31222853 732.66376457 -513.90687561 731.15499878 C-512.8436233 727.21838478 -511.7541256 723.28956497 -510.65738678 719.36216736 C-509.58312486 715.50205559 -508.52996383 711.63622169 -507.47607422 707.77050781 C-507.05725079 706.23683402 -506.63841737 704.70316296 -506.21957397 703.16949463 C-505.38230336 700.10149257 -504.54597968 697.03323419 -503.71035767 693.96478271 C-503.39959006 692.8239303 -503.39959006 692.8239303 -503.08254433 691.66003036 C-502.66459266 690.12497499 -502.247039 688.58981119 -501.82988548 687.05453873 C-500.77416116 683.17369643 -499.70831442 679.29610054 -498.62329102 675.42333984 C-490.59038996 646.69710798 -486.89850613 624.40445325 -500.71383667 596.59130859 C-507.88236718 582.10490819 -513.76230645 567.2943556 -519 552 C-519.48823242 550.58678467 -519.48823242 550.58678467 -519.98632812 549.14501953 C-531.08491929 516.70075589 -537.56107106 483.07098027 -541 449 C-541.09571289 448.14108154 -541.19142578 447.28216309 -541.29003906 446.3972168 C-542.33790012 435.9007663 -542.24384468 425.35040294 -542.25 414.8125 C-542.25067474 413.77254883 -542.25134949 412.73259766 -542.25204468 411.66113281 C-542.21208446 372.68983675 -537.01741147 334.69955901 -527 297 C-526.76732422 296.1140918 -526.53464844 295.22818359 -526.29492188 294.31542969 C-512.16541112 241.44575288 -485.3559492 192.06928362 -452 149 C-451.28457031 148.07058594 -450.56914062 147.14117187 -449.83203125 146.18359375 C-445.64904865 140.84841235 -441.19180523 135.8131005 -436.58984375 130.8359375 C-435.23741909 129.3550019 -433.88885844 127.8695629 -432.58813477 126.34301758 C-427.30262138 120.14421949 -421.56989661 114.41836848 -415.80297852 108.67260742 C-414.066064 106.941053 -412.33456111 105.20421641 -410.60351562 103.46679688 C-404.90620955 97.76576413 -399.1791535 92.18424352 -393 87 C-392.0615625 86.19175781 -391.123125 85.38351563 -390.15625 84.55078125 C-367.03668388 65.06914686 -341.70141513 48.15883889 -315 34 C-314.09475586 33.51982422 -313.18951172 33.03964844 -312.25683594 32.54492188 C-265.37891249 7.92521931 -214.49327828 -6.76286609 -162 -13 C-161.02724121 -13.11859375 -160.05448242 -13.2371875 -159.05224609 -13.359375 C-106.01830677 -19.52632555 -51.37212047 -13.65044266 0 0 Z M-296 371 C-296 371.66 -296 372.32 -296 373 C-297.32 373 -298.64 373 -300 373 C-300 373.66 -300 374.32 -300 375 C-301.32 375 -302.64 375 -304 375 C-304 375.66 -304 376.32 -304 377 C-305.32 377 -306.64 377 -308 377 C-308 377.66 -308 378.32 -308 379 C-308.66 379 -309.32 379 -310 379 C-310 379.66 -310 380.32 -310 381 C-310.66 381 -311.32 381 -312 381 C-312 381.66 -312 382.32 -312 383 C-312.66 383 -313.32 383 -314 383 C-314 383.66 -314 384.32 -314 385 C-314.66 385 -315.32 385 -316 385 C-316 385.66 -316 386.32 -316 387 C-316.66 387 -317.32 387 -318 387 C-318 387.66 -318 388.32 -318 389 C-318.66 389 -319.32 389 -320 389 C-320 390.32 -320 391.64 -320 393 C-320.66 393 -321.32 393 -322 393 C-322 394.32 -322 395.64 -322 397 C-322.66 397 -323.32 397 -324 397 C-324 398.32 -324 399.64 -324 401 C-324.66 401 -325.32 401 -326 401 C-326 408.26 -326 415.52 -326 423 C-325.34 423 -324.68 423 -324 423 C-324 424.32 -324 425.64 -324 427 C-323.34 427 -322.68 427 -322 427 C-322 428.32 -322 429.64 -322 431 C-321.34 431 -320.68 431 -320 431 C-320 432.32 -320 433.64 -320 435 C-319.34 435 -318.68 435 -318 435 C-318 435.66 -318 436.32 -318 437 C-317.34 437 -316.68 437 -316 437 C-316 437.66 -316 438.32 -316 439 C-315.34 439 -314.68 439 -314 439 C-314 439.66 -314 440.32 -314 441 C-313.34 441 -312.68 441 -312 441 C-312 441.66 -312 442.32 -312 443 C-311.34 443 -310.68 443 -310 443 C-310 443.66 -310 444.32 -310 445 C-309.34 445 -308.68 445 -308 445 C-308 445.66 -308 446.32 -308 447 C-306.68 447 -305.36 447 -304 447 C-304 447.66 -304 448.32 -304 449 C-302.68 449 -301.36 449 -300 449 C-300 449.66 -300 450.32 -300 451 C-298.68 451 -297.36 451 -296 451 C-296 451.66 -296 452.32 -296 453 C-289.4 453 -282.8 453 -276 453 C-276 452.34 -276 451.68 -276 451 C-274.68 451 -273.36 451 -272 451 C-272 450.34 -272 449.68 -272 449 C-270.68 449 -269.36 449 -268 449 C-268 448.34 -268 447.68 -268 447 C-266.68 447 -265.36 447 -264 447 C-264 446.34 -264 445.68 -264 445 C-263.34 445 -262.68 445 -262 445 C-262 444.34 -262 443.68 -262 443 C-261.34 443 -260.68 443 -260 443 C-260 442.34 -260 441.68 -260 441 C-259.34 441 -258.68 441 -258 441 C-258 440.34 -258 439.68 -258 439 C-257.34 439 -256.68 439 -256 439 C-256 438.34 -256 437.68 -256 437 C-255.34 437 -254.68 437 -254 437 C-254 436.34 -254 435.68 -254 435 C-253.34 435 -252.68 435 -252 435 C-252 434.34 -252 433.68 -252 433 C-251.34 433 -250.68 433 -250 433 C-250 431.68 -250 430.36 -250 429 C-249.34 429 -248.68 429 -248 429 C-248 427.68 -248 426.36 -248 425 C-247.34 425 -246.68 425 -246 425 C-246 423.02 -246 421.04 -246 419 C-245.34 419 -244.68 419 -244 419 C-244 414.38 -244 409.76 -244 405 C-244.66 405 -245.32 405 -246 405 C-246 403.02 -246 401.04 -246 399 C-246.66 399 -247.32 399 -248 399 C-248 397.68 -248 396.36 -248 395 C-248.66 395 -249.32 395 -250 395 C-250 393.68 -250 392.36 -250 391 C-250.66 391 -251.32 391 -252 391 C-252 390.34 -252 389.68 -252 389 C-252.66 389 -253.32 389 -254 389 C-254 388.34 -254 387.68 -254 387 C-254.66 387 -255.32 387 -256 387 C-256 386.34 -256 385.68 -256 385 C-256.66 385 -257.32 385 -258 385 C-258 384.34 -258 383.68 -258 383 C-258.66 383 -259.32 383 -260 383 C-260 382.34 -260 381.68 -260 381 C-260.66 381 -261.32 381 -262 381 C-262 380.34 -262 379.68 -262 379 C-262.66 379 -263.32 379 -264 379 C-264 378.34 -264 377.68 -264 377 C-265.32 377 -266.64 377 -268 377 C-268 376.34 -268 375.68 -268 375 C-269.32 375 -270.64 375 -272 375 C-272 374.34 -272 373.68 -272 373 C-273.32 373 -274.64 373 -276 373 C-276 372.34 -276 371.68 -276 371 C-282.6 371 -289.2 371 -296 371 Z M-124 371 C-124 371.66 -124 372.32 -124 373 C-125.98 373 -127.96 373 -130 373 C-130 373.66 -130 374.32 -130 375 C-131.32 375 -132.64 375 -134 375 C-134 375.66 -134 376.32 -134 377 C-134.66 377 -135.32 377 -136 377 C-136 377.66 -136 378.32 -136 379 C-136.66 379 -137.32 379 -138 379 C-138 379.66 -138 380.32 -138 381 C-138.66 381 -139.32 381 -140 381 C-140 381.66 -140 382.32 -140 383 C-140.66 383 -141.32 383 -142 383 C-142 383.66 -142 384.32 -142 385 C-142.66 385 -143.32 385 -144 385 C-144 385.66 -144 386.32 -144 387 C-144.66 387 -145.32 387 -146 387 C-146 387.66 -146 388.32 -146 389 C-146.66 389 -147.32 389 -148 389 C-148 389.66 -148 390.32 -148 391 C-148.66 391 -149.32 391 -150 391 C-150 391.66 -150 392.32 -150 393 C-150.66 393 -151.32 393 -152 393 C-152 394.32 -152 395.64 -152 397 C-152.66 397 -153.32 397 -154 397 C-154 398.98 -154 400.96 -154 403 C-154.66 403 -155.32 403 -156 403 C-156 408.94 -156 414.88 -156 421 C-155.34 421 -154.68 421 -154 421 C-154 422.98 -154 424.96 -154 427 C-153.34 427 -152.68 427 -152 427 C-152 428.32 -152 429.64 -152 431 C-151.34 431 -150.68 431 -150 431 C-150 431.66 -150 432.32 -150 433 C-149.34 433 -148.68 433 -148 433 C-148 433.66 -148 434.32 -148 435 C-147.34 435 -146.68 435 -146 435 C-146 435.66 -146 436.32 -146 437 C-145.34 437 -144.68 437 -144 437 C-144 437.66 -144 438.32 -144 439 C-143.34 439 -142.68 439 -142 439 C-142 439.66 -142 440.32 -142 441 C-141.34 441 -140.68 441 -140 441 C-140 441.66 -140 442.32 -140 443 C-139.34 443 -138.68 443 -138 443 C-138 443.66 -138 444.32 -138 445 C-137.34 445 -136.68 445 -136 445 C-136 445.66 -136 446.32 -136 447 C-135.34 447 -134.68 447 -134 447 C-134 447.66 -134 448.32 -134 449 C-132.68 449 -131.36 449 -130 449 C-130 449.66 -130 450.32 -130 451 C-128.02 451 -126.04 451 -124 451 C-124 451.66 -124 452.32 -124 453 C-118.06 453 -112.12 453 -106 453 C-106 452.34 -106 451.68 -106 451 C-104.02 451 -102.04 451 -100 451 C-100 450.34 -100 449.68 -100 449 C-98.68 449 -97.36 449 -96 449 C-96 448.34 -96 447.68 -96 447 C-95.34 447 -94.68 447 -94 447 C-94 446.34 -94 445.68 -94 445 C-93.34 445 -92.68 445 -92 445 C-92 444.34 -92 443.68 -92 443 C-91.34 443 -90.68 443 -90 443 C-90 442.34 -90 441.68 -90 441 C-89.34 441 -88.68 441 -88 441 C-88 440.34 -88 439.68 -88 439 C-87.34 439 -86.68 439 -86 439 C-86 438.34 -86 437.68 -86 437 C-85.34 437 -84.68 437 -84 437 C-84 436.34 -84 435.68 -84 435 C-83.34 435 -82.68 435 -82 435 C-82 434.34 -82 433.68 -82 433 C-81.34 433 -80.68 433 -80 433 C-80 432.34 -80 431.68 -80 431 C-79.34 431 -78.68 431 -78 431 C-78 429.68 -78 428.36 -78 427 C-77.34 427 -76.68 427 -76 427 C-76 425.02 -76 423.04 -76 421 C-75.34 421 -74.68 421 -74 421 C-74 415.06 -74 409.12 -74 403 C-74.66 403 -75.32 403 -76 403 C-76 401.02 -76 399.04 -76 397 C-76.66 397 -77.32 397 -78 397 C-78 395.68 -78 394.36 -78 393 C-78.66 393 -79.32 393 -80 393 C-80 392.34 -80 391.68 -80 391 C-80.66 391 -81.32 391 -82 391 C-82 390.34 -82 389.68 -82 389 C-82.66 389 -83.32 389 -84 389 C-84 388.34 -84 387.68 -84 387 C-84.66 387 -85.32 387 -86 387 C-86 386.34 -86 385.68 -86 385 C-86.66 385 -87.32 385 -88 385 C-88 384.34 -88 383.68 -88 383 C-88.66 383 -89.32 383 -90 383 C-90 382.34 -90 381.68 -90 381 C-90.66 381 -91.32 381 -92 381 C-92 380.34 -92 379.68 -92 379 C-92.66 379 -93.32 379 -94 379 C-94 378.34 -94 377.68 -94 377 C-94.66 377 -95.32 377 -96 377 C-96 376.34 -96 375.68 -96 375 C-97.32 375 -98.64 375 -100 375 C-100 374.34 -100 373.68 -100 373 C-101.98 373 -103.96 373 -106 373 C-106 372.34 -106 371.68 -106 371 C-111.94 371 -117.88 371 -124 371 Z M46 371 C46 371.66 46 372.32 46 373 C44.68 373 43.36 373 42 373 C42 373.66 42 374.32 42 375 C40.68 375 39.36 375 38 375 C38 375.66 38 376.32 38 377 C36.68 377 35.36 377 34 377 C34 377.66 34 378.32 34 379 C33.34 379 32.68 379 32 379 C32 379.66 32 380.32 32 381 C31.34 381 30.68 381 30 381 C30 381.66 30 382.32 30 383 C29.34 383 28.68 383 28 383 C28 383.66 28 384.32 28 385 C27.34 385 26.68 385 26 385 C26 385.66 26 386.32 26 387 C25.34 387 24.68 387 24 387 C24 387.66 24 388.32 24 389 C23.34 389 22.68 389 22 389 C22 389.66 22 390.32 22 391 C21.34 391 20.68 391 20 391 C20 392.32 20 393.64 20 395 C19.34 395 18.68 395 18 395 C18 396.32 18 397.64 18 399 C17.34 399 16.68 399 16 399 C16 400.98 16 402.96 16 405 C15.34 405 14.68 405 14 405 C14 409.62 14 414.24 14 419 C14.66 419 15.32 419 16 419 C16 420.98 16 422.96 16 425 C16.66 425 17.32 425 18 425 C18 426.32 18 427.64 18 429 C18.66 429 19.32 429 20 429 C20 430.32 20 431.64 20 433 C20.66 433 21.32 433 22 433 C22 433.66 22 434.32 22 435 C22.66 435 23.32 435 24 435 C24 435.66 24 436.32 24 437 C24.66 437 25.32 437 26 437 C26 437.66 26 438.32 26 439 C26.66 439 27.32 439 28 439 C28 439.66 28 440.32 28 441 C28.66 441 29.32 441 30 441 C30 441.66 30 442.32 30 443 C30.66 443 31.32 443 32 443 C32 443.66 32 444.32 32 445 C32.66 445 33.32 445 34 445 C34 445.66 34 446.32 34 447 C35.32 447 36.64 447 38 447 C38 447.66 38 448.32 38 449 C39.32 449 40.64 449 42 449 C42 449.66 42 450.32 42 451 C43.32 451 44.64 451 46 451 C46 451.66 46 452.32 46 453 C52.6 453 59.2 453 66 453 C66 452.34 66 451.68 66 451 C67.32 451 68.64 451 70 451 C70 450.34 70 449.68 70 449 C71.32 449 72.64 449 74 449 C74 448.34 74 447.68 74 447 C75.32 447 76.64 447 78 447 C78 446.34 78 445.68 78 445 C78.66 445 79.32 445 80 445 C80 444.34 80 443.68 80 443 C80.66 443 81.32 443 82 443 C82 442.34 82 441.68 82 441 C82.66 441 83.32 441 84 441 C84 440.34 84 439.68 84 439 C84.66 439 85.32 439 86 439 C86 438.34 86 437.68 86 437 C86.66 437 87.32 437 88 437 C88 436.34 88 435.68 88 435 C88.66 435 89.32 435 90 435 C90 433.68 90 432.36 90 431 C90.66 431 91.32 431 92 431 C92 429.68 92 428.36 92 427 C92.66 427 93.32 427 94 427 C94 425.68 94 424.36 94 423 C94.66 423 95.32 423 96 423 C96 415.74 96 408.48 96 401 C95.34 401 94.68 401 94 401 C94 399.68 94 398.36 94 397 C93.34 397 92.68 397 92 397 C92 395.68 92 394.36 92 393 C91.34 393 90.68 393 90 393 C90 391.68 90 390.36 90 389 C89.34 389 88.68 389 88 389 C88 388.34 88 387.68 88 387 C87.34 387 86.68 387 86 387 C86 386.34 86 385.68 86 385 C85.34 385 84.68 385 84 385 C84 384.34 84 383.68 84 383 C83.34 383 82.68 383 82 383 C82 382.34 82 381.68 82 381 C81.34 381 80.68 381 80 381 C80 380.34 80 379.68 80 379 C79.34 379 78.68 379 78 379 C78 378.34 78 377.68 78 377 C76.68 377 75.36 377 74 377 C74 376.34 74 375.68 74 375 C72.68 375 71.36 375 70 375 C70 374.34 70 373.68 70 373 C68.68 373 67.36 373 66 373 C66 372.34 66 371.68 66 371 C59.4 371 52.8 371 46 371 Z " fill="#FEFEFE" transform="translate(627,100)"/>
<path d="M0 0 C9.9 0 19.8 0 30 0 C30 0.66 30 1.32 30 2 C30.763125 2.144375 31.52625 2.28875 32.3125 2.4375 C35 3 35 3 38 4 C38.495 4.99 38.495 4.99 39 6 C39.680625 6.37125 40.36125 6.7425 41.0625 7.125 C51.35182248 13.69265264 56.33520712 23.29394557 59 35 C59.22662031 38.65098732 59.18997531 42.28138908 59.125 45.9375 C59.11597656 46.90751953 59.10695313 47.87753906 59.09765625 48.87695312 C59.07426107 51.25156407 59.04148176 53.62564776 59 56 C58.34 56 57.68 56 57 56 C57.0825 56.9075 57.165 57.815 57.25 58.75 C56.94105763 62.76625081 55.93848534 63.39734156 53 66 C52.5875 66.7425 52.175 67.485 51.75 68.25 C48.68359277 73.06863993 44.50294061 78.16568646 39 80 C38.67 80.66 38.34 81.32 38 82 C36.1875 82.81640625 36.1875 82.81640625 34 83.5625 C31.26066983 84.39037842 31.26066983 84.39037842 29 86 C26.78144736 86.08783542 24.56011504 86.10694609 22.33984375 86.09765625 C21.34314415 86.09553383 21.34314415 86.09553383 20.3263092 86.09336853 C18.19666101 86.08775518 16.06711661 86.07520054 13.9375 86.0625 C12.49674631 86.05748671 11.05599097 86.05292351 9.61523438 86.04882812 C6.07678898 86.03778145 2.53840461 86.02050792 -1 86 C-1 85.01 -1 84.02 -1 83 C-1.515625 82.896875 -2.03125 82.79375 -2.5625 82.6875 C-5.86026435 81.75736134 -8.86633332 80.38604488 -12 79 C-12 78.34 -12 77.68 -12 77 C-12.86625 76.62875 -12.86625 76.62875 -13.75 76.25 C-17.48597363 74.17445909 -19.64391315 72.06826056 -21 68 C-21.66 67.67 -22.32 67.34 -23 67 C-24.88186002 63.9681144 -25 62.75482645 -25 59 C-25.66 59 -26.32 59 -27 59 C-27 56.69 -27 54.38 -27 52 C-26.67 52.66 -26.34 53.32 -26 54 C-25.01 54 -24.02 54 -23 54 C-23 55.32 -23 56.64 -23 58 C-22.34 58 -21.68 58 -21 58 C-21 59.32 -21 60.64 -21 62 C-20.34 62 -19.68 62 -19 62 C-19 63.32 -19 64.64 -19 66 C-18.34 66 -17.68 66 -17 66 C-17 66.66 -17 67.32 -17 68 C-16.34 68 -15.68 68 -15 68 C-15 68.66 -15 69.32 -15 70 C-14.34 70 -13.68 70 -13 70 C-13 70.66 -13 71.32 -13 72 C-12.34 72 -11.68 72 -11 72 C-11 72.66 -11 73.32 -11 74 C-10.34 74 -9.68 74 -9 74 C-9 74.66 -9 75.32 -9 76 C-8.34 76 -7.68 76 -7 76 C-7 76.66 -7 77.32 -7 78 C-5.68 78 -4.36 78 -3 78 C-3 78.66 -3 79.32 -3 80 C-1.68 80 -0.36 80 1 80 C1 80.66 1 81.32 1 82 C2.32 82 3.64 82 5 82 C5 82.66 5 83.32 5 84 C11.6 84 18.2 84 25 84 C25 83.34 25 82.68 25 82 C26.32 82 27.64 82 29 82 C29 81.34 29 80.68 29 80 C30.32 80 31.64 80 33 80 C33 79.34 33 78.68 33 78 C34.32 78 35.64 78 37 78 C37 77.34 37 76.68 37 76 C37.66 76 38.32 76 39 76 C39 75.34 39 74.68 39 74 C39.66 74 40.32 74 41 74 C41 73.34 41 72.68 41 72 C41.66 72 42.32 72 43 72 C43 71.34 43 70.68 43 70 C43.66 70 44.32 70 45 70 C45 69.34 45 68.68 45 68 C45.66 68 46.32 68 47 68 C47 67.34 47 66.68 47 66 C47.66 66 48.32 66 49 66 C49 65.34 49 64.68 49 64 C49.66 64 50.32 64 51 64 C51 62.68 51 61.36 51 60 C51.66 60 52.32 60 53 60 C53 58.68 53 57.36 53 56 C53.66 56 54.32 56 55 56 C55 54.02 55 52.04 55 50 C55.66 50 56.32 50 57 50 C57 45.38 57 40.76 57 36 C56.34 36 55.68 36 55 36 C55 34.02 55 32.04 55 30 C54.34 30 53.68 30 53 30 C53 28.68 53 27.36 53 26 C52.34 26 51.68 26 51 26 C51 24.68 51 23.36 51 22 C50.34 22 49.68 22 49 22 C49 21.34 49 20.68 49 20 C48.34 20 47.68 20 47 20 C47 19.34 47 18.68 47 18 C46.34 18 45.68 18 45 18 C45 17.34 45 16.68 45 16 C44.34 16 43.68 16 43 16 C43 15.34 43 14.68 43 14 C42.34 14 41.68 14 41 14 C41 13.34 41 12.68 41 12 C40.34 12 39.68 12 39 12 C39 11.34 39 10.68 39 10 C38.34 10 37.68 10 37 10 C37 9.34 37 8.68 37 8 C35.68 8 34.36 8 33 8 C33 7.34 33 6.68 33 6 C31.68 6 30.36 6 29 6 C29 5.34 29 4.68 29 4 C27.68 4 26.36 4 25 4 C25 3.34 25 2.68 25 2 C18.4 2 11.8 2 5 2 C5 2.66 5 3.32 5 4 C3.68 4 2.36 4 1 4 C1 4.66 1 5.32 1 6 C-0.32 6 -1.64 6 -3 6 C-3 6.66 -3 7.32 -3 8 C-4.32 8 -5.64 8 -7 8 C-7 8.66 -7 9.32 -7 10 C-7.66 10 -8.32 10 -9 10 C-9 10.66 -9 11.32 -9 12 C-9.66 12 -10.32 12 -11 12 C-11 12.66 -11 13.32 -11 14 C-11.66 14 -12.32 14 -13 14 C-13 14.66 -13 15.32 -13 16 C-13.66 16 -14.32 16 -15 16 C-15 16.66 -15 17.32 -15 18 C-15.66 18 -16.32 18 -17 18 C-17 18.66 -17 19.32 -17 20 C-17.66 20 -18.32 20 -19 20 C-19 21.32 -19 22.64 -19 24 C-19.66 24 -20.32 24 -21 24 C-21 25.32 -21 26.64 -21 28 C-21.66 28 -22.32 28 -23 28 C-23 29.32 -23 30.64 -23 32 C-23.99 32 -24.98 32 -26 32 C-26.33 32.99 -26.66 33.98 -27 35 C-27 32.36 -27 29.72 -27 27 C-26.34 27 -25.68 27 -25 27 C-24.7834375 25.8553125 -24.7834375 25.8553125 -24.5625 24.6875 C-24 22 -24 22 -23 19 C-22.34 18.67 -21.68 18.34 -21 18 C-20.5875 17.278125 -20.175 16.55625 -19.75 15.8125 C-15.88671298 9.60364586 -11.71791279 6.6344756 -5 4 C-4.67 3.34 -4.34 2.68 -4 2 C-2.68 2 -1.36 2 0 2 C0 1.34 0 0.68 0 0 Z " fill="#FCFCFE" transform="translate(326,469)"/>
<path d="M0 0 C9.9 0 19.8 0 30 0 C30 0.66 30 1.32 30 2 C31.32 2 32.64 2 34 2 C34.495 2.99 34.495 2.99 35 4 C36.56002643 4.79734684 38.14862719 5.5393316 39.75 6.25 C46.86612932 9.71162639 49.53962436 13.91446892 53 21 C53.66 21.33 54.32 21.66 55 22 C55 23.32 55 24.64 55 26 C55.66 26 56.32 26 57 26 C57 28.97 57 31.94 57 35 C56.67 34.01 56.34 33.02 56 32 C55.01 32 54.02 32 53 32 C53 30.68 53 29.36 53 28 C52.34 28 51.68 28 51 28 C51 26.68 51 25.36 51 24 C50.34 24 49.68 24 49 24 C49 22.68 49 21.36 49 20 C48.34 20 47.68 20 47 20 C47 19.34 47 18.68 47 18 C46.34 18 45.68 18 45 18 C45 17.34 45 16.68 45 16 C44.34 16 43.68 16 43 16 C43 15.34 43 14.68 43 14 C42.34 14 41.68 14 41 14 C41 13.34 41 12.68 41 12 C40.34 12 39.68 12 39 12 C39 11.34 39 10.68 39 10 C38.34 10 37.68 10 37 10 C37 9.34 37 8.68 37 8 C35.68 8 34.36 8 33 8 C33 7.34 33 6.68 33 6 C31.68 6 30.36 6 29 6 C29 5.34 29 4.68 29 4 C27.68 4 26.36 4 25 4 C25 3.34 25 2.68 25 2 C18.4 2 11.8 2 5 2 C5 2.66 5 3.32 5 4 C3.68 4 2.36 4 1 4 C1 4.66 1 5.32 1 6 C-0.32 6 -1.64 6 -3 6 C-3 6.66 -3 7.32 -3 8 C-4.32 8 -5.64 8 -7 8 C-7 8.66 -7 9.32 -7 10 C-7.66 10 -8.32 10 -9 10 C-9 10.66 -9 11.32 -9 12 C-9.66 12 -10.32 12 -11 12 C-11 12.66 -11 13.32 -11 14 C-11.66 14 -12.32 14 -13 14 C-13 14.66 -13 15.32 -13 16 C-13.66 16 -14.32 16 -15 16 C-15 16.66 -15 17.32 -15 18 C-15.66 18 -16.32 18 -17 18 C-17 18.66 -17 19.32 -17 20 C-17.66 20 -18.32 20 -19 20 C-19 20.66 -19 21.32 -19 22 C-19.66 22 -20.32 22 -21 22 C-21 23.32 -21 24.64 -21 26 C-21.66 26 -22.32 26 -23 26 C-23 27.32 -23 28.64 -23 30 C-23.66 30 -24.32 30 -25 30 C-25 31.98 -25 33.96 -25 36 C-25.66 36 -26.32 36 -27 36 C-27.33 40.29 -27.66 44.58 -28 49 C-28.33 49 -28.66 49 -29 49 C-29 43.06 -29 37.12 -29 31 C-28.34 31 -27.68 31 -27 31 C-27 29.02 -27 27.04 -27 25 C-26.34 24.67 -25.68 24.34 -25 24 C-24.484375 22.845 -23.96875 21.69 -23.4375 20.5 C-20.81184892 15.00005665 -16.62818143 10.89517295 -12 7 C-11.01 6.67 -10.02 6.34 -9 6 C-8.67 5.34 -8.34 4.68 -8 4 C-4.9681144 2.11813998 -3.75482645 2 0 2 C0 1.34 0 0.68 0 0 Z " fill="#FCFCFE" transform="translate(668,469)"/>
<path d="M0 0 C0.99 0 1.98 0 3 0 C3 1.98 3 3.96 3 6 C3.66 6 4.32 6 5 6 C5 7.32 5 8.64 5 10 C5.66 10 6.32 10 7 10 C7 11.32 7 12.64 7 14 C7.66 14 8.32 14 9 14 C9 14.66 9 15.32 9 16 C9.66 16 10.32 16 11 16 C11 16.66 11 17.32 11 18 C11.66 18 12.32 18 13 18 C13 18.66 13 19.32 13 20 C13.66 20 14.32 20 15 20 C15 20.66 15 21.32 15 22 C15.66 22 16.32 22 17 22 C17 22.66 17 23.32 17 24 C17.66 24 18.32 24 19 24 C19 24.66 19 25.32 19 26 C19.66 26 20.32 26 21 26 C21 26.66 21 27.32 21 28 C22.32 28 23.64 28 25 28 C25 28.66 25 29.32 25 30 C26.32 30 27.64 30 29 30 C29 30.66 29 31.32 29 32 C30.32 32 31.64 32 33 32 C33 32.66 33 33.32 33 34 C39.6 34 46.2 34 53 34 C53 33.34 53 32.68 53 32 C54.32 32 55.64 32 57 32 C57 31.34 57 30.68 57 30 C58.32 30 59.64 30 61 30 C61 29.34 61 28.68 61 28 C62.32 28 63.64 28 65 28 C65 27.34 65 26.68 65 26 C65.66 26 66.32 26 67 26 C67 25.34 67 24.68 67 24 C67.66 24 68.32 24 69 24 C69 23.34 69 22.68 69 22 C69.66 22 70.32 22 71 22 C71 21.34 71 20.68 71 20 C71.66 20 72.32 20 73 20 C73 19.34 73 18.68 73 18 C73.66 18 74.32 18 75 18 C75 17.34 75 16.68 75 16 C75.66 16 76.32 16 77 16 C77 14.68 77 13.36 77 12 C77.66 12 78.32 12 79 12 C79 10.68 79 9.36 79 8 C79.66 8 80.32 8 81 8 C81 6.68 81 5.36 81 4 C81.99 4 82.98 4 84 4 C84.33 3.34 84.66 2.68 85 2 C84.44687265 6.02992782 83.8441938 10.02022924 83 14 C82.34 14 81.68 14 81 14 C81 15.32 81 16.64 81 18 C80.01 18 79.02 18 78 18 C77.9071875 18.8353125 77.9071875 18.8353125 77.8125 19.6875 C76.6519231 22.99068042 74.59786554 24.71894733 72 27 C71.34 27 70.68 27 70 27 C70 27.66 70 28.32 70 29 C68.71802734 29.63228516 68.71802734 29.63228516 67.41015625 30.27734375 C66.30542969 30.82519531 65.20070313 31.37304688 64.0625 31.9375 C62.96035156 32.48277344 61.85820313 33.02804687 60.72265625 33.58984375 C58.15205586 34.74704978 58.15205586 34.74704978 57 36 C54.78144736 36.08783542 52.56011504 36.10694609 50.33984375 36.09765625 C49.34314415 36.09553383 49.34314415 36.09553383 48.3263092 36.09336853 C46.19666101 36.08775518 44.06711661 36.07520054 41.9375 36.0625 C40.49674631 36.05748671 39.05599097 36.05292351 37.61523438 36.04882812 C34.07678898 36.03778145 30.53840461 36.02050792 27 36 C27 35.34 27 34.68 27 34 C25.68 34 24.36 34 23 34 C23 33.34 23 32.68 23 32 C21.68 32 20.36 32 19 32 C19 31.34 19 30.68 19 30 C17.68 30 16.36 30 15 30 C13.94410931 28.36816893 12.9563874 26.69207001 12 25 C10.4888297 23.40929442 8.91880462 21.91531769 7.3046875 20.4296875 C6 19 6 19 5 16 C4.34 15.67 3.68 15.34 3 15 C3 13.68 3 12.36 3 11 C2.34 11 1.68 11 1 11 C0.67 7.37 0.34 3.74 0 0 Z " fill="#ECF0FE" transform="translate(640,519)"/>
<path d="M0 0 C0.66 0 1.32 0 2 0 C-0.18476051 12.4186387 -5.70296741 19.90243072 -14.71484375 28.66796875 C-16.12080181 29.99227991 -16.12080181 29.99227991 -17 32 C-18.8125 32.81640625 -18.8125 32.81640625 -21 33.5625 C-23.73933017 34.39037842 -23.73933017 34.39037842 -26 36 C-28.21855264 36.08783542 -30.43988496 36.10694609 -32.66015625 36.09765625 C-33.65685585 36.09553383 -33.65685585 36.09553383 -34.6736908 36.09336853 C-36.80333899 36.08775518 -38.93288339 36.07520054 -41.0625 36.0625 C-42.50325369 36.05748671 -43.94400903 36.05292351 -45.38476562 36.04882812 C-48.92321102 36.03778145 -52.46159539 36.02050792 -56 36 C-56 35.01 -56 34.02 -56 33 C-56.515625 32.896875 -57.03125 32.79375 -57.5625 32.6875 C-60.86026435 31.75736134 -63.86633332 30.38604488 -67 29 C-67 28.34 -67 27.68 -67 27 C-67.5775 26.7525 -68.155 26.505 -68.75 26.25 C-72.48597363 24.17445909 -74.64391315 22.06826056 -76 18 C-76.66 17.67 -77.32 17.34 -78 17 C-79.88186002 13.9681144 -80 12.75482645 -80 9 C-80.66 9 -81.32 9 -82 9 C-82 6.69 -82 4.38 -82 2 C-81.67 2.66 -81.34 3.32 -81 4 C-80.01 4 -79.02 4 -78 4 C-78 5.32 -78 6.64 -78 8 C-77.34 8 -76.68 8 -76 8 C-76 9.32 -76 10.64 -76 12 C-75.34 12 -74.68 12 -74 12 C-74 13.32 -74 14.64 -74 16 C-73.34 16 -72.68 16 -72 16 C-72 16.66 -72 17.32 -72 18 C-71.34 18 -70.68 18 -70 18 C-70 18.66 -70 19.32 -70 20 C-69.34 20 -68.68 20 -68 20 C-68 20.66 -68 21.32 -68 22 C-67.34 22 -66.68 22 -66 22 C-66 22.66 -66 23.32 -66 24 C-65.34 24 -64.68 24 -64 24 C-64 24.66 -64 25.32 -64 26 C-63.34 26 -62.68 26 -62 26 C-62 26.66 -62 27.32 -62 28 C-60.68 28 -59.36 28 -58 28 C-58 28.66 -58 29.32 -58 30 C-56.68 30 -55.36 30 -54 30 C-54 30.66 -54 31.32 -54 32 C-52.68 32 -51.36 32 -50 32 C-50 32.66 -50 33.32 -50 34 C-43.4 34 -36.8 34 -30 34 C-30 33.34 -30 32.68 -30 32 C-28.68 32 -27.36 32 -26 32 C-26 31.34 -26 30.68 -26 30 C-24.68 30 -23.36 30 -22 30 C-22 29.34 -22 28.68 -22 28 C-20.68 28 -19.36 28 -18 28 C-18 27.34 -18 26.68 -18 26 C-17.34 26 -16.68 26 -16 26 C-16 25.34 -16 24.68 -16 24 C-15.34 24 -14.68 24 -14 24 C-14 23.34 -14 22.68 -14 22 C-13.34 22 -12.68 22 -12 22 C-12 21.34 -12 20.68 -12 20 C-11.34 20 -10.68 20 -10 20 C-10 19.34 -10 18.68 -10 18 C-9.34 18 -8.68 18 -8 18 C-8 17.34 -8 16.68 -8 16 C-7.34 16 -6.68 16 -6 16 C-6 15.34 -6 14.68 -6 14 C-5.34 14 -4.68 14 -4 14 C-4 12.68 -4 11.36 -4 10 C-3.34 10 -2.68 10 -2 10 C-2 8.68 -2 7.36 -2 6 C-1.34 6 -0.68 6 0 6 C0 4.02 0 2.04 0 0 Z " fill="#FCFCFE" transform="translate(381,519)"/>
<path d="M0 0 C2.5 1.8125 2.5 1.8125 5 4 C5 4.99 5 5.98 5 7 C5.99 7 6.98 7 8 7 C9.81497102 15.1407691 10.25176938 22.86460259 10.125 31.1875 C10.11597656 32.33025391 10.10695313 33.47300781 10.09765625 34.65039062 C10.07436393 37.4338231 10.04165999 40.21679229 10 43 C9.34 43 8.68 43 8 43 C7.86464844 43.556875 7.72929688 44.11375 7.58984375 44.6875 C5.74952476 51.21126552 2.79816217 55.2818072 -2 60 C-2.53625 60.5465625 -3.0725 61.093125 -3.625 61.65625 C-5.33477 63.26737942 -7.08453186 64.64001762 -9 66 C-9.68578125 66.48855469 -10.3715625 66.97710938 -11.078125 67.48046875 C-23.31199253 74.5248086 -40.78167603 71.78713197 -54 69 C-54 68.01 -54 67.02 -54 66 C-54.598125 65.9175 -55.19625 65.835 -55.8125 65.75 C-58.5966296 64.79544128 -59.43311142 63.42867729 -61 61 C-58.34703021 61.98538878 -56.08297569 62.94237799 -53.75 64.5625 C-49.93840829 66.55492294 -46.2459896 66.73173486 -42 67 C-42 67.66 -42 68.32 -42 69 C-36.06 69 -30.12 69 -24 69 C-24 68.34 -24 67.68 -24 67 C-22.02 67 -20.04 67 -18 67 C-18 66.34 -18 65.68 -18 65 C-16.68 65 -15.36 65 -14 65 C-14 64.34 -14 63.68 -14 63 C-13.34 63 -12.68 63 -12 63 C-12 62.34 -12 61.68 -12 61 C-11.34 61 -10.68 61 -10 61 C-10 60.34 -10 59.68 -10 59 C-9.34 59 -8.68 59 -8 59 C-8 58.34 -8 57.68 -8 57 C-7.34 57 -6.68 57 -6 57 C-6 56.34 -6 55.68 -6 55 C-5.34 55 -4.68 55 -4 55 C-4 54.34 -4 53.68 -4 53 C-3.34 53 -2.68 53 -2 53 C-2 52.34 -2 51.68 -2 51 C-1.34 51 -0.68 51 0 51 C0 50.34 0 49.68 0 49 C0.66 49 1.32 49 2 49 C2 48.34 2 47.68 2 47 C2.66 47 3.32 47 4 47 C4 45.68 4 44.36 4 43 C4.66 43 5.32 43 6 43 C6 41.02 6 39.04 6 37 C6.66 37 7.32 37 8 37 C8 31.06 8 25.12 8 19 C7.34 19 6.68 19 6 19 C5.98582031 18.443125 5.97164062 17.88625 5.95703125 17.3125 C5.60724155 11.71586475 4.31367331 8.19339458 1.05859375 3.62890625 C0 2 0 2 0 0 Z " fill="#EDF1FE" transform="translate(545,484)"/>
<path d="M0 0 C9.24 0 18.48 0 28 0 C28 0.66 28 1.32 28 2 C29.98 2 31.96 2 34 2 C34.495 2.99 34.495 2.99 35 4 C35.804375 4.474375 36.60875 4.94875 37.4375 5.4375 C40 7 40 7 42 10 C39.53841253 9.0827707 37.29632865 8.19532135 35.09765625 6.74609375 C26.21961617 1.0375651 15.19047167 2.06818605 5 2 C5 2.66 5 3.32 5 4 C3.02 4 1.04 4 -1 4 C-1 4.66 -1 5.32 -1 6 C-2.32 6 -3.64 6 -5 6 C-5 6.66 -5 7.32 -5 8 C-5.66 8 -6.32 8 -7 8 C-7 8.66 -7 9.32 -7 10 C-7.66 10 -8.32 10 -9 10 C-9 10.66 -9 11.32 -9 12 C-9.66 12 -10.32 12 -11 12 C-11 12.66 -11 13.32 -11 14 C-11.66 14 -12.32 14 -13 14 C-13 14.66 -13 15.32 -13 16 C-13.66 16 -14.32 16 -15 16 C-15 16.66 -15 17.32 -15 18 C-15.66 18 -16.32 18 -17 18 C-17 18.66 -17 19.32 -17 20 C-17.66 20 -18.32 20 -19 20 C-19 20.66 -19 21.32 -19 22 C-19.66 22 -20.32 22 -21 22 C-21 22.66 -21 23.32 -21 24 C-21.66 24 -22.32 24 -23 24 C-23 25.32 -23 26.64 -23 28 C-23.66 28 -24.32 28 -25 28 C-25 29.98 -25 31.96 -25 34 C-25.66 34 -26.32 34 -27 34 C-27.25610901 50.66194563 -27.25610901 50.66194563 -21.27734375 65.85546875 C-20 68 -20 68 -20 71 C-22.52588702 68.63707344 -23.88820837 67.33537489 -25 64 C-25.66 63.67 -26.32 63.34 -27 63 C-27 61.02 -27 59.04 -27 57 C-27.66 57 -28.32 57 -29 57 C-29 47.76 -29 38.52 -29 29 C-28.34 29 -27.68 29 -27 29 C-27 27.02 -27 25.04 -27 23 C-26.34 22.67 -25.68 22.34 -25 22 C-24.38125 20.92492187 -24.38125 20.92492187 -23.75 19.828125 C-21.57262384 16.3093296 -18.93467702 13.64214547 -16 10.75 C-15.46632813 10.20859375 -14.93265625 9.6671875 -14.3828125 9.109375 C-11.95302003 6.69167105 -10.29461654 5.09820551 -7 4 C-6.67 3.34 -6.34 2.68 -6 2 C-4.02 2 -2.04 2 0 2 C0 1.34 0 0.68 0 0 Z " fill="#BCCAFC" transform="translate(498,469)"/>
<path d="M0 0 C0.66 0.33 1.32 0.66 2 1 C-2.87415984 6.8826067 -8.85855081 10.50746435 -16.57910156 11.24707031 C-27.28242033 11.75397365 -37.50822227 11.21222972 -48 9 C-48 8.01 -48 7.02 -48 6 C-48.598125 5.9175 -49.19625 5.835 -49.8125 5.75 C-52.5966296 4.79544128 -53.43311142 3.42867729 -55 1 C-52.34703021 1.98538878 -50.08297569 2.94237799 -47.75 4.5625 C-43.93840829 6.55492294 -40.2459896 6.73173486 -36 7 C-36 7.66 -36 8.32 -36 9 C-18.03266497 9.25619554 -18.03266497 9.25619554 -2 2 C-1.34 1.34 -0.68 0.68 0 0 Z " fill="#DFE5FD" transform="translate(539,544)"/>
<path d="M0 0 C0.66 0 1.32 0 2 0 C0.03628051 11.16219501 -4.30554111 19.46561639 -13 27 C-18.00063572 30.24506344 -23.97971286 34 -30 34 C-30 33.34 -30 32.68 -30 32 C-28.68 32 -27.36 32 -26 32 C-26 31.34 -26 30.68 -26 30 C-24.68 30 -23.36 30 -22 30 C-22 29.34 -22 28.68 -22 28 C-20.68 28 -19.36 28 -18 28 C-18 27.34 -18 26.68 -18 26 C-17.34 26 -16.68 26 -16 26 C-16 25.34 -16 24.68 -16 24 C-15.34 24 -14.68 24 -14 24 C-14 23.34 -14 22.68 -14 22 C-13.34 22 -12.68 22 -12 22 C-12 21.34 -12 20.68 -12 20 C-11.34 20 -10.68 20 -10 20 C-10 19.34 -10 18.68 -10 18 C-9.34 18 -8.68 18 -8 18 C-8 17.34 -8 16.68 -8 16 C-7.34 16 -6.68 16 -6 16 C-6 15.34 -6 14.68 -6 14 C-5.34 14 -4.68 14 -4 14 C-4 12.68 -4 11.36 -4 10 C-3.34 10 -2.68 10 -2 10 C-2 8.68 -2 7.36 -2 6 C-1.34 6 -0.68 6 0 6 C0 4.02 0 2.04 0 0 Z " fill="#FCFCFE" transform="translate(381,519)"/>
<path d="M0 0 C0.66 0 1.32 0 2 0 C2 1.98 2 3.96 2 6 C2.66 6 3.32 6 4 6 C4 7.32 4 8.64 4 10 C4.66 10 5.32 10 6 10 C6 11.32 6 12.64 6 14 C6.66 14 7.32 14 8 14 C8 14.66 8 15.32 8 16 C8.66 16 9.32 16 10 16 C10 16.66 10 17.32 10 18 C10.66 18 11.32 18 12 18 C12 18.66 12 19.32 12 20 C12.66 20 13.32 20 14 20 C14 20.66 14 21.32 14 22 C14.66 22 15.32 22 16 22 C16 22.66 16 23.32 16 24 C16.66 24 17.32 24 18 24 C18 24.66 18 25.32 18 26 C18.66 26 19.32 26 20 26 C20 26.66 20 27.32 20 28 C21.32 28 22.64 28 24 28 C24 28.66 24 29.32 24 30 C25.32 30 26.64 30 28 30 C28 30.66 28 31.32 28 32 C29.32 32 30.64 32 32 32 C32 32.66 32 33.32 32 34 C22.31004473 33.25461883 14.48775641 26.79068667 8 20 C3.5400203 14.38619471 0 7.27173566 0 0 Z " fill="#FCFDFE" transform="translate(641,519)"/>
<path d="M0 0 C2 1 2 1 2.8449707 2.89404297 C4.87897904 9.44139106 5.37452179 15.29630678 5.1875 22.125 C5.16719727 23.55972656 5.16719727 23.55972656 5.14648438 25.0234375 C5.11159222 27.3495811 5.06258339 29.6744653 5 32 C4.34 32 3.68 32 3 32 C3.12375 33.36125 3.12375 33.36125 3.25 34.75 C2.94105763 38.76625081 1.93848534 39.39734156 -1 42 C-1.4125 42.7425 -1.825 43.485 -2.25 44.25 C-4.89452018 48.40567457 -8.45513625 51.60669812 -12 55 C-12.99 54.67 -13.98 54.34 -15 54 C-14.40832031 53.5153125 -13.81664062 53.030625 -13.20703125 52.53125 C-4.87654361 45.4646047 1.11022254 37.57050934 2.27148438 26.38500977 C2.36451813 23.66698891 2.36098511 20.96904508 2.3125 18.25 C2.31572266 17.33089844 2.31894531 16.41179687 2.32226562 15.46484375 C2.28529822 10.8203939 2.03760419 7.25380317 0 3 C0 2.01 0 1.02 0 0 Z " fill="#C2CFFC" transform="translate(380,493)"/>
<path d="M0 0 C0 0.66 0 1.32 0 2 C-1.98 2 -3.96 2 -6 2 C-6 2.66 -6 3.32 -6 4 C-7.32 4 -8.64 4 -10 4 C-10 4.66 -10 5.32 -10 6 C-10.66 6 -11.32 6 -12 6 C-12 6.66 -12 7.32 -12 8 C-12.66 8 -13.32 8 -14 8 C-14 8.66 -14 9.32 -14 10 C-14.66 10 -15.32 10 -16 10 C-16 10.66 -16 11.32 -16 12 C-16.66 12 -17.32 12 -18 12 C-18 12.66 -18 13.32 -18 14 C-18.66 14 -19.32 14 -20 14 C-20 14.66 -20 15.32 -20 16 C-20.66 16 -21.32 16 -22 16 C-22 16.66 -22 17.32 -22 18 C-22.66 18 -23.32 18 -24 18 C-24 18.66 -24 19.32 -24 20 C-24.66 20 -25.32 20 -26 20 C-26 20.66 -26 21.32 -26 22 C-26.66 22 -27.32 22 -28 22 C-28 23.32 -28 24.64 -28 26 C-28.66 26 -29.32 26 -30 26 C-30 27.98 -30 29.96 -30 32 C-30.66 32 -31.32 32 -32 32 C-31.57365409 22.19404414 -25.45522332 14.62804029 -18.57421875 8.05078125 C-13.15172113 3.73088558 -7.02376625 0 0 0 Z " fill="#FCFDFE" transform="translate(503,471)"/>
<path d="M0 0 C0.66 0 1.32 0 2 0 C1.025072 7.39876863 -3.97749012 13.39179054 -9.5078125 18.1640625 C-15.24338222 22.28595511 -20.77780254 26 -28 26 C-28 25.34 -28 24.68 -28 24 C-26.02 24 -24.04 24 -22 24 C-22 23.34 -22 22.68 -22 22 C-20.68 22 -19.36 22 -18 22 C-18 21.34 -18 20.68 -18 20 C-17.34 20 -16.68 20 -16 20 C-16 19.34 -16 18.68 -16 18 C-15.34 18 -14.68 18 -14 18 C-14 17.34 -14 16.68 -14 16 C-13.34 16 -12.68 16 -12 16 C-12 15.34 -12 14.68 -12 14 C-11.34 14 -10.68 14 -10 14 C-10 13.34 -10 12.68 -10 12 C-9.34 12 -8.68 12 -8 12 C-8 11.34 -8 10.68 -8 10 C-7.34 10 -6.68 10 -6 10 C-6 9.34 -6 8.68 -6 8 C-5.34 8 -4.68 8 -4 8 C-4 7.34 -4 6.68 -4 6 C-3.34 6 -2.68 6 -2 6 C-2 5.34 -2 4.68 -2 4 C-1.34 4 -0.68 4 0 4 C0 2.68 0 1.36 0 0 Z " fill="#FCFCFE" transform="translate(549,527)"/>
<path d="M0 0 C9.9 0 19.8 0 30 0 C30 0.66 30 1.32 30 2 C30.763125 2.144375 31.52625 2.28875 32.3125 2.4375 C35 3 35 3 38 4 C38.495 5.485 38.495 5.485 39 7 C33.37087273 5.16726089 33.37087273 5.16726089 30.66357422 3.94628906 C27.64381731 2.87345884 25.26981824 2.74146139 22.0703125 2.734375 C20.94496094 2.73179687 19.81960938 2.72921875 18.66015625 2.7265625 C17.49355469 2.73429687 16.32695312 2.74203125 15.125 2.75 C13.96613281 2.74226563 12.80726563 2.73453125 11.61328125 2.7265625 C5.69711124 2.74008517 0.57280386 2.95284756 -5 5 C-4.67 4.01 -4.34 3.02 -4 2 C-2.68 2 -1.36 2 0 2 C0 1.34 0 0.68 0 0 Z " fill="#EFF3FE" transform="translate(326,469)"/>
<path d="M0 0 C9.9 0 19.8 0 30 0 C30 0.66 30 1.32 30 2 C31.32 2 32.64 2 34 2 C34.495 3.485 34.495 3.485 35 5 C34.11054687 4.67773438 33.22109375 4.35546875 32.3046875 4.0234375 C26.67840895 2.42522363 20.92997063 2.63155929 15.125 2.625 C13.99191406 2.60050781 12.85882812 2.57601563 11.69140625 2.55078125 C5.21962049 2.52828373 0.42166932 3.10730981 -5.29736328 6.23583984 C-5.8592334 6.4880127 -6.42110352 6.74018555 -7 7 C-7.66 6.67 -8.32 6.34 -9 6 C-7.71567636 3.43135272 -6.63365249 3.053461 -4 2 C-2.68 2 -1.36 2 0 2 C0 1.34 0 0.68 0 0 Z " fill="#D3DCFD" transform="translate(668,469)"/>
<path d="M0 0 C0.66 0.33 1.32 0.66 2 1 C0.6993321 3.6013358 -0.30080022 3.64188008 -3 4.5625 C-5.73933017 5.39037842 -5.73933017 5.39037842 -8 7 C-10.21855264 7.08783542 -12.43988496 7.10694609 -14.66015625 7.09765625 C-15.65685585 7.09553383 -15.65685585 7.09553383 -16.6736908 7.09336853 C-18.80333899 7.08775518 -20.93288339 7.07520054 -23.0625 7.0625 C-24.50325369 7.05748671 -25.94400903 7.05292351 -27.38476562 7.04882812 C-30.92321102 7.03778145 -34.46159539 7.02050792 -38 7 C-38 6.01 -38 5.02 -38 4 C-39.32 3.67 -40.64 3.34 -42 3 C-41.34 2.67 -40.68 2.34 -40 2 C-39.25459961 2.30244629 -38.50919922 2.60489258 -37.74121094 2.91650391 C-32.78590557 4.87514705 -27.517278 4.36913443 -22.25 4.375 C-21.10789062 4.39949219 -19.96578125 4.42398438 -18.7890625 4.44921875 C-12.28441873 4.47164856 -7.44552077 3.91326231 -1.69824219 0.76416016 C-1.13782227 0.5119873 -0.57740234 0.25981445 0 0 Z " fill="#D4DDFD" transform="translate(363,548)"/>
<path d="M0 0 C6.82908293 1.31328518 10.9486293 4.41567823 15 10 C16.0150089 11.99242489 17.01873444 13.99074195 18 16 C18.66 16.33 19.32 16.66 20 17 C20 18.32 20 19.64 20 21 C20.66 21 21.32 21 22 21 C22 23.97 22 26.94 22 30 C20.22670069 27.34005104 19.31173429 25.27883659 18.25 22.3125 C15.27912529 14.78116817 10.89929873 9.36748335 4.61328125 4.32421875 C2.96648514 2.97249022 1.48306029 1.52786573 0 0 Z " fill="#B3C3FC" transform="translate(703,474)"/>
<path d="M0 0 C0.33 0 0.66 0 1 0 C0.99887207 0.60360352 0.99774414 1.20720703 0.99658203 1.82910156 C0.91970484 17.55489759 0.91970484 17.55489759 6.72265625 31.85546875 C8 34 8 34 8 37 C5.47411298 34.63707344 4.11179163 33.33537489 3 30 C2.34 29.67 1.68 29.34 1 29 C1 27.02 1 25.04 1 23 C0.34 23 -0.32 23 -1 23 C-1.02911321 19.9166866 -1.04683682 16.83340875 -1.0625 13.75 C-1.07087891 12.87730469 -1.07925781 12.00460937 -1.08789062 11.10546875 C-1.09111328 10.26113281 -1.09433594 9.41679688 -1.09765625 8.546875 C-1.10551147 7.38430176 -1.10551147 7.38430176 -1.11352539 6.19824219 C-1.00036998 4.00716402 -0.60552448 2.10362139 0 0 Z " fill="#DCE3FD" transform="translate(470,503)"/>
<path d="M0 0 C-0.74443359 0.51046875 -0.74443359 0.51046875 -1.50390625 1.03125 C-11.76871109 8.35490583 -17.94506954 16.78027815 -21 29 C-21.33 29 -21.66 29 -22 29 C-22 26.36 -22 23.72 -22 21 C-21.34 21 -20.68 21 -20 21 C-19.7834375 19.8553125 -19.7834375 19.8553125 -19.5625 18.6875 C-19 16 -19 16 -18 13 C-17.34 12.67 -16.68 12.34 -16 12 C-15.5875 11.278125 -15.175 10.55625 -14.75 9.8125 C-11.55649578 4.6800825 -6.54567637 -2.18189212 0 0 Z " fill="#AEBFFB" transform="translate(321,475)"/>
<path d="M0 0 C1.26650391 0.00966797 1.26650391 0.00966797 2.55859375 0.01953125 C3.43128906 0.03628906 4.30398438 0.05304688 5.203125 0.0703125 C6.53537109 0.08384766 6.53537109 0.08384766 7.89453125 0.09765625 C10.08100558 0.12116673 12.26692594 0.15402751 14.453125 0.1953125 C14.453125 0.8553125 14.453125 1.5153125 14.453125 2.1953125 C16.433125 2.1953125 18.413125 2.1953125 20.453125 2.1953125 C20.783125 2.8553125 21.113125 3.5153125 21.453125 4.1953125 C22.2575 4.6696875 23.061875 5.1440625 23.890625 5.6328125 C26.453125 7.1953125 26.453125 7.1953125 28.453125 10.1953125 C25.99153753 9.2780832 23.74945365 8.39063385 21.55078125 6.94140625 C12.67274117 1.2328776 1.64359667 2.26349855 -8.546875 2.1953125 C-5.55561181 0.47325062 -3.44001787 -0.04648673 0 0 Z " fill="#DDE4FD" transform="translate(511.546875,468.8046875)"/>
<path d="M0 0 C2.22013951 2.22013951 2.71598135 3.6952805 3.75 6.625 C6.70661293 14.19654752 11.07551338 19.61230844 17.38671875 24.67578125 C19.03351486 26.02750978 20.51693971 27.47213427 22 29 C19.61435923 28.42415568 17.33317216 27.77772405 15 27 C15 26.34 15 25.68 15 25 C14.4225 24.7525 13.845 24.505 13.25 24.25 C9.51402637 22.17445909 7.35608685 20.06826056 6 16 C5.34 15.67 4.68 15.34 4 15 C2.11813998 11.9681144 2 10.75482645 2 7 C1.34 7 0.68 7 0 7 C0 4.69 0 2.38 0 0 Z " fill="#AEBFFB" transform="translate(299,521)"/>
<path d="M0 0 C1.45606519 4.52092968 0.27032841 7.51648796 -1 12 C-1.66 12 -2.32 12 -3 12 C-3 13.32 -3 14.64 -3 16 C-3.99 16 -4.98 16 -6 16 C-6.061875 16.556875 -6.12375 17.11375 -6.1875 17.6875 C-7.3480769 20.99068042 -9.40213446 22.71894733 -12 25 C-12.66 25 -13.32 25 -14 25 C-14 25.66 -14 26.32 -14 27 C-15.8125 28.0625 -15.8125 28.0625 -18 29 C-18.99 28.67 -19.98 28.34 -21 28 C-20.50371094 27.6596875 -20.00742187 27.319375 -19.49609375 26.96875 C-9.53367717 19.86083988 -3.51538004 11.71793345 0 0 Z " fill="#ADBEFB" transform="translate(724,521)"/>
<path d="M0 0 C2.5 1.8125 2.5 1.8125 5 4 C5 4.99 5 5.98 5 7 C5.99 7 6.98 7 8 7 C10.04404545 15.7784452 10.21767642 24.03898756 10 33 C9.67 33 9.34 33 9 33 C9 28.38 9 23.76 9 19 C8.01 19 7.02 19 6 19 C5.98582031 18.443125 5.97164062 17.88625 5.95703125 17.3125 C5.60724155 11.71586475 4.31367331 8.19339458 1.05859375 3.62890625 C0 2 0 2 0 0 Z " fill="#D8E0FD" transform="translate(545,484)"/>
<path d="M0 0 C1.88656962 2.82985443 2.67966861 4.92365323 3.6875 8.125 C6.69236655 16.56990376 11.91587026 22.64370678 19 28 C18.01 28.33 17.02 28.66 16 29 C14.34810857 27.40207236 12.7036661 25.79644124 11.0625 24.1875 C10.14597656 23.29417969 9.22945312 22.40085937 8.28515625 21.48046875 C6 19 6 19 5 16 C4.34 15.67 3.68 15.34 3 15 C3 13.68 3 12.36 3 11 C2.34 11 1.68 11 1 11 C0.67 7.37 0.34 3.74 0 0 Z " fill="#B7C6FC" transform="translate(640,519)"/>
<path d="M0 0 C7.30212142 1.57496737 14.07264539 4.23328215 21 7 C21 7.33 21 7.66 21 8 C18.03 8 15.06 8 12 8 C12 7.34 12 6.68 12 6 C10.68 6 9.36 6 8 6 C8 5.34 8 4.68 8 4 C6.68 4 5.36 4 4 4 C4 3.34 4 2.68 4 2 C2.68 2 1.36 2 0 2 C0 1.34 0 0.68 0 0 Z " fill="#D0DAFD" transform="translate(655,547)"/>
<path d="M0 0 C1 3 1 3 0.3203125 4.9453125 C-3.18397311 11.33548039 -7.65847761 16.07742054 -13 21 C-13.99 20.67 -14.98 20.34 -16 20 C-15.40832031 19.5153125 -14.81664062 19.030625 -14.20703125 18.53125 C-7.6889561 13.00205086 -3.74568089 7.59214244 0 0 Z " fill="#B3C3FC" transform="translate(381,527)"/>
<path d="M0 0 C1 3 1 3 0.1328125 5.13671875 C-1.38720918 8.97870458 -1.70684313 12.72347425 -2.125 16.8125 C-2.21136719 17.60076172 -2.29773438 18.38902344 -2.38671875 19.20117188 C-2.59751064 21.13343084 -2.79962896 23.06663263 -3 25 C-3.33 25 -3.66 25 -4 25 C-4 19.06 -4 13.12 -4 7 C-3.34 7 -2.68 7 -2 7 C-2 5.02 -2 3.04 -2 1 C-1.34 0.67 -0.68 0.34 0 0 Z " fill="#B8C7FC" transform="translate(643,493)"/>
<path d="M0 0 C1.54712956 4.43781901 0.1500362 7.20730846 -1.609375 11.3828125 C-3.78943113 15.48572712 -6.73997939 18.72166467 -10 22 C-10.66 21.67 -11.32 21.34 -12 21 C-11.46890625 20.32195313 -10.9378125 19.64390625 -10.390625 18.9453125 C-5.7946097 12.88997848 -2.38323173 7.22809096 0 0 Z " fill="#B9C7FC" transform="translate(553,522)"/>
<path d="M0 0 C3.3 0 6.6 0 10 0 C10 0.66 10 1.32 10 2 C10.763125 2.144375 11.52625 2.28875 12.3125 2.4375 C15 3 15 3 18 4 C18.33 4.99 18.66 5.98 19 7 C18.15179688 6.71382813 17.30359375 6.42765625 16.4296875 6.1328125 C13.00711722 5.00235079 9.57150281 3.93005188 6.125 2.875 C4.97257812 2.52179688 3.82015625 2.16859375 2.6328125 1.8046875 C1.76398438 1.53914063 0.89515625 1.27359375 0 1 C0 0.67 0 0.34 0 0 Z " fill="#BAC9FC" transform="translate(346,469)"/>
<path d="M0 0 C4.00281475 0.53919194 5.85442573 2.48169585 8.625 5.3125 C9.40101563 6.09238281 10.17703125 6.87226563 10.9765625 7.67578125 C12.80454566 9.77549164 14.08254566 11.38255673 15 14 C14.67 14.99 14.34 15.98 14 17 C13.57589844 16.34773438 13.15179688 15.69546875 12.71484375 15.0234375 C8.95193846 9.41629511 5.27558682 5.19893645 0 1 C0 0.67 0 0.34 0 0 Z " fill="#B5C4FC" transform="translate(365,476)"/>
<path d="M0 0 C0.99 0.33 1.98 0.66 3 1 C2.40832031 1.4846875 1.81664062 1.969375 1.20703125 2.46875 C-3.95814695 6.8503041 -7.82577575 11.00247076 -11 17 C-11.33 16.01 -11.66 15.02 -12 14 C-9.02360388 8.43543333 -4.52654393 4.32878231 0 0 Z " fill="#B5C4FC" transform="translate(656,476)"/>
<path d="M0 0 C2.64 0 5.28 0 8 0 C5.64016009 2.35983991 3.75976064 2.9573498 0.625 4.0625 C-0.80972656 4.57490234 -0.80972656 4.57490234 -2.2734375 5.09765625 C-4.5077331 5.83708645 -6.70828442 6.47323125 -9 7 C-8 4 -8 4 -6.1875 2.8125 C-4 2 -4 2 0 2 C0 1.34 0 0.68 0 0 Z " fill="#C6D2FC" transform="translate(668,469)"/>
<path d="M0 0 C0.66 0.33 1.32 0.66 2 1 C0.6993321 3.6013358 -0.30080022 3.64188008 -3 4.5625 C-5.73933017 5.39037842 -5.73933017 5.39037842 -8 7 C-9.51928038 7.07179964 -11.04167482 7.08392007 -12.5625 7.0625 C-13.38878906 7.05347656 -14.21507812 7.04445313 -15.06640625 7.03515625 C-15.70449219 7.02355469 -16.34257812 7.01195312 -17 7 C-13.8754014 5.34884956 -10.70424016 4.11754065 -7.375 2.9375 C-3.62306302 1.61944264 -3.62306302 1.61944264 0 0 Z " fill="#BDCBFC" transform="translate(363,548)"/>
<path d="M0 0 C0.66 0.33 1.32 0.66 2 1 C-2.0683235 5.8819882 -6.81536254 8.45132656 -13 10 C-15.30859375 9.6015625 -15.30859375 9.6015625 -17 9 C-16.19175781 8.68546875 -15.38351562 8.3709375 -14.55078125 8.046875 C-13.48214844 7.61890625 -12.41351562 7.1909375 -11.3125 6.75 C-10.25675781 6.33234375 -9.20101562 5.9146875 -8.11328125 5.484375 C-4.98077741 3.9908349 -2.61180529 2.26776415 0 0 Z " fill="#B3C3FC" transform="translate(539,544)"/>
<path d="M0 0 C0.66 0.99 1.32 1.98 2 3 C1.390625 5.375 1.390625 5.375 0.25 8 C-0.11609375 8.86625 -0.4821875 9.7325 -0.859375 10.625 C-2 13 -2 13 -4 16 C-4 13.36 -4 10.72 -4 8 C-3.34 8 -2.68 8 -2 8 C-1.855625 7.236875 -1.71125 6.47375 -1.5625 5.6875 C-1 3 -1 3 0 0 Z " fill="#C7D3FC" transform="translate(303,488)"/>
<path d="M0 0 C1.45606519 4.52092968 0.27032841 7.51648796 -1 12 C-1.66 12 -2.32 12 -3 12 C-3 13.32 -3 14.64 -3 16 C-3.66 15.67 -4.32 15.34 -5 15 C-4.37321829 11.33827525 -3.35548154 8.1181005 -1.9375 4.6875 C-1.39416016 3.36298828 -1.39416016 3.36298828 -0.83984375 2.01171875 C-0.56269531 1.34785156 -0.28554688 0.68398438 0 0 Z " fill="#C9D4FC" transform="translate(724,521)"/>
<path d="M0 0 C2.40804568 2.40804568 3.00768759 4.42203775 4.125 7.625 C4.47820312 8.62789062 4.83140625 9.63078125 5.1953125 10.6640625 C5.46085937 11.43492187 5.72640625 12.20578125 6 13 C5.34 13.66 4.68 14.32 4 15 C2.23537317 11.91190305 2 10.76687864 2 7 C1.34 7 0.68 7 0 7 C0 4.69 0 2.38 0 0 Z " fill="#C7D2FC" transform="translate(299,521)"/>
<path d="M0 0 C2.97 0 5.94 0 9 0 C5.98509443 2.00993705 3.7850073 2.72623341 0.3125 3.625 C-1.17830078 4.01558594 -1.17830078 4.01558594 -2.69921875 4.4140625 C-3.45847656 4.60742188 -4.21773438 4.80078125 -5 5 C-4.67 4.01 -4.34 3.02 -4 2 C-2.68 2 -1.36 2 0 2 C0 1.34 0 0.68 0 0 Z " fill="#B5C5FC" transform="translate(326,469)"/>
<path d="M0 0 C0.66 0 1.32 0 2 0 C2 1.32 2 2.64 2 4 C2.66 4 3.32 4 4 4 C4 6.97 4 9.94 4 13 C2.1083221 10.16248315 1.54066697 8.61880572 0.875 5.375 C0.70742188 4.57835937 0.53984375 3.78171875 0.3671875 2.9609375 C0 1 0 1 0 0 Z " fill="#CCD7FD" transform="translate(721,491)"/>
<path d="M0 0 C4.30764815 1.56641751 8.06171464 3.68336156 12 6 C10.375 6.75 10.375 6.75 8 7 C4.38765096 4.97708454 2.3075208 3.46128121 0 0 Z " fill="#B0C1FB" transform="translate(484,545)"/>
<path d="M0 0 C5.84615385 4.30769231 5.84615385 4.30769231 7 8 C6.70865843 9.34313401 6.37974823 10.67913658 6 12 C4.99466333 10.37829621 3.99588093 8.75252763 3 7.125 C2.443125 6.22007812 1.88625 5.31515625 1.3125 4.3828125 C0 2 0 2 0 0 Z " fill="#B0C1FB" transform="translate(545,484)"/>
<path d="M0 0 C3.96074927 0.56582132 6.72259306 1.69695729 10 4 C10.99 5.485 10.99 5.485 12 7 C7.69235185 5.43358249 3.93828536 3.31663844 0 1 C0 0.67 0 0.34 0 0 Z " fill="#B0C1FB" transform="translate(528,472)"/>
<path d="M0 0 C2.91488977 2.6234008 4.88503898 5.71816394 7 9 C6.67 9.66 6.34 10.32 6 11 C3.34730103 8.52414762 1.31989897 6.40973899 0 3 C0 2.01 0 1.02 0 0 Z " fill="#B0C0FB" transform="translate(472,529)"/>
<path d="M0 0 C4.455 0.99 4.455 0.99 9 2 C9 2.33 9 2.66 9 3 C6.03 3 3.06 3 0 3 C0 2.01 0 1.02 0 0 Z " fill="#BECBFC" transform="translate(667,552)"/>
<path d="M0 0 C2.38564077 0.57584432 4.66682784 1.22227595 7 2 C7.33 2.99 7.66 3.98 8 5 C2.25 3.125 2.25 3.125 0 2 C0 1.34 0 0.68 0 0 Z " fill="#C6D2FC" transform="translate(357,471)"/>
<path d="M0 0 C2.64 0 5.28 0 8 0 C5.23776722 2.76223278 2.79293383 2.57856291 -1 3 C-0.67 2.01 -0.34 1.02 0 0 Z " fill="#B9C7FC" transform="translate(668,469)"/>
</svg>
