<!DOCTYPE svg PUBLIC "-//W3C//DTD SVG 1.1//EN" "http://www.w3.org/Graphics/SVG/1.1/DTD/svg11.dtd">
<!-- Uploaded to: SVG Repo, www.svgrepo.com, Transformed by: SVG Repo Mixer Tools -->
<svg fill="#335EF7" version="1.1" id="Capa_1" xmlns="http://www.w3.org/2000/svg" xmlns:xlink="http://www.w3.org/1999/xlink" width="800px" height="800px" viewBox="0 0 35.5 35.5" xml:space="preserve" data-darkreader-inline-fill="" style="--darkreader-inline-fill: #072bab;">
<g id="SVGRepo_bgCarrier" stroke-width="0"/>
<g id="SVGRepo_tracerCarrier" stroke-linecap="round" stroke-linejoin="round"/>
<g id="SVGRepo_iconCarrier"> <g> <path d="M35.154,16.667c0.225,0.403,0.346,0.822,0.346,1.25c0,3.521-7.947,6.375-17.75,6.375C7.947,24.292,0,21.438,0,17.917 c0-0.428,0.123-0.847,0.347-1.25c1.618,2.922,8.793,5.125,17.403,5.125C26.361,21.792,33.537,19.589,35.154,16.667z M17.75,28.625 c-8.61,0-15.785-2.203-17.403-5.125C0.123,23.904,0,24.322,0,24.75c0,3.521,7.947,6.375,17.75,6.375 c9.805,0,17.75-2.854,17.75-6.375c0-0.428-0.121-0.846-0.346-1.25C33.537,26.422,26.361,28.625,17.75,28.625z M17.75,4.375 C7.947,4.375,0,7.229,0,10.75s7.947,6.375,17.75,6.375c9.805,0,17.75-2.854,17.75-6.375S27.553,4.375,17.75,4.375z"/> </g> </g>
</svg>