<?xml version="1.0" encoding="UTF-8"?>
<svg version="1.1" xmlns="http://www.w3.org/2000/svg" width="512" height="512">
<path d="M0 0 C1.53380162 1.31839463 3.05486994 2.65175544 4.5625 4 C5.37847656 4.68578125 6.19445312 5.3715625 7.03515625 6.078125 C30.22278701 26.0044352 42.98332191 53.85393379 45.5625 84 C45.97796602 91.30528493 46.06767685 98.6226711 46.1875 105.9375 C46.22578745 107.89259346 46.26484492 109.84767199 46.3046875 111.80273438 C46.39948247 116.53503152 46.48392688 121.26740687 46.5625 126 C47.35769043 126.38309326 48.15288086 126.76618652 48.97216797 127.16088867 C57.02043469 131.0992588 63.61288568 135.34399595 70.5625 141 C71.42875 141.69996094 72.295 142.39992187 73.1875 143.12109375 C99.13845035 165.21994991 108.33707501 199.81564644 111.04711914 232.5871582 C113.41979374 267.1551142 112.8773972 304.88820357 98.5625 337 C98.16442139 337.90516357 98.16442139 337.90516357 97.75830078 338.82861328 C86.24486523 364.64265797 64.9222141 382.94232197 38.82861328 393.06005859 C4.44054747 405.74630338 -31.44377127 408.22399579 -67.8125 408.1875 C-68.92310791 408.18689575 -70.03371582 408.1862915 -71.17797852 408.18566895 C-87.33894703 408.16178459 -103.38002164 408.01836028 -119.4375 406 C-121.04987549 405.79866455 -121.04987549 405.79866455 -122.69482422 405.59326172 C-154.05711994 401.52017772 -186.48892128 393.91965224 -210.4375 372 C-211.36175781 371.16855469 -212.28601563 370.33710938 -213.23828125 369.48046875 C-239.93597235 344.25982834 -247.51338389 305.56434104 -248.546875 270.26416016 C-248.87582464 253.44455397 -248.64487142 236.70209833 -246.4375 220 C-246.29272217 218.8874585 -246.29272217 218.8874585 -246.14501953 217.75244141 C-243.68260067 199.77961406 -238.3652432 182.80043799 -229.4375 167 C-228.89480469 166.01773438 -228.35210937 165.03546875 -227.79296875 164.0234375 C-221.45721333 153.32510597 -212.88144425 144.45118923 -202.9375 137.0625 C-202.36966797 136.63839844 -201.80183594 136.21429688 -201.21679688 135.77734375 C-195.65937301 131.82815763 -189.56894112 128.94590642 -183.4375 126 C-183.42291748 124.79690186 -183.40833496 123.59380371 -183.39331055 122.35424805 C-183.33434117 117.79326946 -183.25713767 113.23273522 -183.17504883 108.67211914 C-183.14225462 106.71646456 -183.11408938 104.76072563 -183.09106445 102.80493164 C-182.65112941 66.38392646 -173.63772691 34.44125515 -147.17163086 8.31616211 C-108.322025 -28.57103272 -42.72774614 -33.46229105 0 0 Z M-129.2421875 37.39453125 C-144.80966174 55.87051936 -149.64722545 76.84392563 -149.5 100.5 C-149.49497533 101.90885258 -149.49041413 103.31770689 -149.48632812 104.7265625 C-149.4746003 108.15108638 -149.45818691 111.57552047 -149.4375 115 C-148.44532471 114.85377197 -147.45314941 114.70754395 -146.4309082 114.55688477 C-142.68725009 114.00635438 -138.94275262 113.46171877 -135.19799805 112.91870117 C-133.58904588 112.68458716 -131.9803137 112.44895527 -130.37182617 112.21166992 C-128.03623277 111.86740826 -125.69985554 111.52893883 -123.36328125 111.19140625 C-122.66479568 111.08719864 -121.96631012 110.98299103 -121.24665833 110.87562561 C-109.7811222 109.23663108 -98.31949275 108.83512096 -86.75 108.796875 C-85.72995377 108.79263393 -85.72995377 108.79263393 -84.68930054 108.78830719 C-81.0767175 108.77343357 -77.46417303 108.76413472 -73.8515625 108.75976562 C-70.93736975 108.75542233 -68.02347998 108.74167623 -65.109375 108.71875 C-38.87375509 108.51665218 -13.32723519 110.45398174 12.5625 115 C13.16287693 83.4725142 10.96645284 57.6321967 -11.82421875 33.52734375 C-27.97230348 17.91028721 -48.64156282 10.6875 -70.82348633 10.6875 C-93.15224072 11.0618081 -113.84054874 21.35805792 -129.2421875 37.39453125 Z M-190.1640625 169.671875 C-214.79474198 194.89504505 -215.98415936 232.37946616 -215.65625 265.66796875 C-215.25262261 292.30852096 -211.56540954 319.67750037 -194.4375 341 C-193.99148437 341.62132812 -193.54546875 342.24265625 -193.0859375 342.8828125 C-178.51489727 362.10228275 -150.50292396 368.66284743 -128.08984375 372.00390625 C-122.21629584 372.79807099 -116.34123356 373.47549077 -110.4375 374 C-109.40689453 374.09498779 -108.37628906 374.18997559 -107.31445312 374.2878418 C-95.7580715 375.20963202 -84.19449922 375.18610258 -72.60791016 375.18530273 C-69.10436565 375.18747405 -65.60114475 375.20564631 -62.09765625 375.22460938 C-23.17373706 375.32160185 23.35583341 373.84642333 53.69921875 345.953125 C78.01723871 320.46253804 79.38667875 282.75216149 78.78125 249.5234375 C78.03973132 219.91459641 73.46510233 189.72395142 51.5625 168 C34.20765309 151.52349613 9.62744894 145.93979691 -13.4375 143 C-14.53892334 142.85353027 -14.53892334 142.85353027 -15.66259766 142.70410156 C-68.29354367 135.95916479 -149.03008972 130.53469701 -190.1640625 169.671875 Z " fill="#000000" transform="translate(324.4375,63)"/>
<path d="M0 0 C4.8676679 3.73878322 6.5649502 8.05141079 7.8984375 13.91015625 C8.29476319 17.67747878 8.31993063 21.40569518 8.296875 25.19140625 C8.29974518 26.24493286 8.30261536 27.29845947 8.30557251 28.38391113 C8.30760327 30.59920798 8.302143 32.81452317 8.28955078 35.02978516 C8.27348364 38.40047703 8.28943393 41.76996996 8.30859375 45.140625 C8.30661114 47.30338804 8.30276711 49.46615033 8.296875 51.62890625 C8.30598404 53.12460144 8.30598404 53.12460144 8.3152771 54.6505127 C8.25080358 61.13631494 7.89582609 68.27612018 3.58822632 73.49865723 C-0.10851548 76.81819274 -4.04065937 78.86098512 -9.046875 78.94140625 C-15.16430068 78.47620278 -19.05981637 76.11971713 -23.24023438 71.59570312 C-26.45769677 66.56894144 -25.67030168 60.37370384 -25.6328125 54.62890625 C-25.6366394 53.34205933 -25.64046631 52.0552124 -25.64440918 50.72937012 C-25.65028799 48.01258011 -25.64179481 45.29631818 -25.62304688 42.57958984 C-25.60025686 39.10930086 -25.61338885 35.64024945 -25.63733673 32.1700058 C-25.65532393 28.84370858 -25.64270455 25.51773855 -25.6328125 22.19140625 C-25.64090942 20.95064331 -25.64900635 19.70988037 -25.65734863 18.43151855 C-25.54138895 7.75026145 -25.54138895 7.75026145 -21.1015625 2.91015625 C-15.09980666 -2.64146791 -7.47951492 -3.8787819 0 0 Z " fill="#000000" transform="translate(265.1015625,286.08984375)"/>
</svg>
