<?xml version="1.0" encoding="UTF-8"?>
<svg version="1.1" xmlns="http://www.w3.org/2000/svg" width="512" height="480">
    <path
        d="M0 0 C8.52943341 5.32017748 13.63444632 13.35555238 18.125 22.125 C19.1568824 24.0785557 20.1921659 26.0303179 21.23046875 27.98046875 C21.76333496 28.98255371 22.29620117 29.98463867 22.84521484 31.01708984 C25.58676241 36.06254047 28.51461601 40.99562499 31.4375 45.9375 C36.74550903 54.9462249 41.80494985 64.061862 46.74804688 73.27514648 C50.68156667 80.59314223 54.74542398 87.82447943 58.89086914 95.02416992 C63.62082804 103.24430191 68.25067727 111.51915639 72.86889648 119.80249023 C73.70916382 121.30791382 73.70916382 121.30791382 74.56640625 122.84375 C75.06084229 123.73126953 75.55527832 124.61878906 76.06469727 125.53320312 C76.53834717 126.36787109 77.01199707 127.20253906 77.5 128.0625 C77.91063438 128.90746253 78.32126877 129.75242506 78.74434662 130.62299252 C80.99003343 133.74340902 82.28956206 133.94460795 86.02575684 134.62391663 C87.17513733 134.84377731 88.32451782 135.063638 89.50872803 135.29016113 C90.77106262 135.50901978 92.03339722 135.72787842 93.33398438 135.95336914 C94.67651514 136.20190201 96.01869212 136.45235246 97.36053467 136.70457458 C100.25088697 137.2436118 103.14327481 137.76900485 106.03800964 138.28398323 C110.62398465 139.09994686 115.20407976 139.94605591 119.78381348 140.79624939 C127.03857194 142.13933832 134.29685835 143.46214497 141.55689478 144.77637523 C154.52918477 147.12498364 167.49641283 149.50113168 180.46048975 151.89464086 C185.00418872 152.73261509 189.5496975 153.55966443 194.09704494 154.37759984 C196.94153409 154.89096708 199.78455653 155.41214108 202.62729645 155.93509865 C204.55269207 156.28674907 206.47983997 156.62876377 208.40704346 156.97036743 C220.22862788 159.15970211 231.47070604 161.68458572 238.84375 171.9296875 C243.37835704 179.47656922 243.22524552 187.51683587 242.5 196.0625 C240.49213877 203.81477706 235.08908179 208.9113427 229.4140625 214.2265625 C227.1762566 216.33790384 225.15496384 218.56640547 223.1484375 220.8984375 C218.84470204 225.88635052 214.16115844 230.45232161 209.4609375 235.0625 C205.54013229 238.93789047 201.84324905 242.91746085 198.24609375 247.09375 C194.72909547 251.05922457 190.89038303 254.71109394 187.10546875 258.41796875 C183.95556225 261.52874598 180.9211404 264.67609379 178.03125 268.03125 C173.76860087 272.97477222 169.11799832 277.4946549 164.4609375 282.0625 C161.13898359 285.34597567 157.94062934 288.65822702 154.90625 292.2109375 C152.7858702 294.68190282 150.65320177 296.88742656 148.15625 298.9765625 C147.63289063 299.42902344 147.10953125 299.88148438 146.5703125 300.34765625 C145.51652683 301.24678184 144.43726734 302.11681482 143.3359375 302.95703125 C141.5240606 304.58225751 140.5725643 305.86730068 139.5 308.0625 C138.85345747 321.31370076 142.13270795 335.49724454 143.84375 348.6015625 C144.17665155 351.1759199 144.50912296 353.75033296 144.84118652 356.32479858 C145.80084966 363.7581272 146.76588158 371.19075073 147.73180389 378.62326813 C149.04573775 388.73625666 150.35551609 398.84977755 151.66133118 408.9638176 C152.14697435 412.71737068 152.6360405 416.47046673 153.12536621 420.22354126 C153.42551693 422.54305203 153.72553213 424.86258034 154.02539062 427.18212891 C154.16048538 428.21102737 154.29558014 429.23992584 154.43476868 430.30000305 C157.92933337 457.46933329 157.92933337 457.46933329 150.2734375 468.01953125 C145.00186022 474.09229538 139.11832816 477.56506103 131.0546875 478.43359375 C129.84039062 478.45550781 128.62609375 478.47742188 127.375 478.5 C126.17617188 478.53996094 124.97734375 478.57992188 123.7421875 478.62109375 C117.88464537 478.19615014 112.76843073 475.47976702 107.5 473.0625 C106.16020363 472.45424132 104.82035736 471.84609257 103.48046875 471.23803711 C99.66115501 469.4964112 95.85177465 467.73392567 92.0447998 465.96551514 C88.61332805 464.37161465 85.17945009 462.78292748 81.74575806 461.19381714 C79.96469406 460.36946926 78.1837499 459.54486243 76.40292358 458.72000122 C67.52639561 454.60888362 58.63973482 450.51996657 49.75 446.4375 C48.99876862 446.09244415 48.24753723 445.74738831 47.47354126 445.39187622 C35.73682119 440.00150961 23.99499915 434.62230152 12.25 429.25 C11.51334106 428.91289001 10.77668213 428.57578003 10.0177002 428.22845459 C9.30319702 427.90153625 8.58869385 427.57461792 7.85253906 427.23779297 C7.16158142 426.92128784 6.47062378 426.60478271 5.75872803 426.27868652 C4.43034859 425.67287148 3.10019471 425.07092919 1.76812744 424.4732666 C-0.92227768 423.26416462 -3.56352587 422.02811155 -6.15820312 420.62353516 C-9.94672888 418.61895067 -12.39269938 417.6155786 -16.59375 418.859375 C-18.24731096 419.5519286 -19.88059441 420.29346175 -21.5 421.0625 C-22.60988281 421.56458984 -23.71976563 422.06667969 -24.86328125 422.58398438 C-28.19993305 424.10828382 -31.5114863 425.68167797 -34.81924438 427.26754761 C-38.60680642 429.08243323 -42.40320002 430.87866756 -46.19921875 432.67578125 C-46.97750534 433.04457901 -47.75579193 433.41337677 -48.55766296 433.79335022 C-56.27318655 437.44233454 -64.03580558 440.98368546 -71.8125 444.5 C-74.52877695 445.72887713 -77.24493738 446.95801117 -79.9609375 448.1875 C-80.64443771 448.49684982 -81.32793793 448.80619965 -82.03215027 449.12492371 C-87.41775544 451.56530474 -92.79269808 454.02844846 -98.1640625 456.5 C-98.98003403 456.87544449 -99.79600555 457.25088898 -100.63670349 457.63771057 C-104.57222153 459.44923788 -108.50684552 461.2626875 -112.44067383 463.07788086 C-120.07738704 466.5979296 -127.72969541 470.0802202 -135.41015625 473.50390625 C-136.17573349 473.84598618 -136.94131073 474.1880661 -137.73008728 474.54051208 C-146.27863401 478.33656685 -155.01079266 479.68017989 -164.2421875 477.37890625 C-172.45069093 473.95632956 -177.52738337 468.85686615 -181.5546875 461.015625 C-184.35388614 452.27102097 -183.25676815 443.66446856 -182.05297852 434.72167969 C-181.88731384 433.42287872 -181.72164917 432.12407776 -181.55096436 430.78591919 C-181.19300339 427.98049732 -180.82803955 425.176112 -180.45739937 422.37233734 C-179.87087377 417.93544643 -179.30008058 413.49661491 -178.73118591 409.05743408 C-177.82961833 402.03724771 -176.9173103 395.01850537 -176.00051492 388.00029302 C-174.35821316 375.42553096 -172.73413954 362.84840776 -171.11423057 350.27074361 C-170.54588147 345.86122132 -169.97278387 341.45234971 -169.39565861 337.04396772 C-169.12367326 334.96290498 -168.85336131 332.88163272 -168.58374023 330.80026245 C-168.25543314 328.26704067 -167.92435342 325.73417602 -167.58995056 323.20175171 C-167.44546478 322.08045868 -167.300979 320.95916565 -167.15211487 319.80389404 C-167.0254522 318.83425091 -166.89878954 317.86460777 -166.76828861 316.86558151 C-166.00068035 311.04908655 -166.00068035 311.04908655 -168.04125977 305.85595703 C-169.10558228 304.84831299 -169.10558228 304.84831299 -170.19140625 303.8203125 C-170.97193359 303.06363281 -171.75246094 302.30695313 -172.55664062 301.52734375 C-173.38357422 300.75519531 -174.21050781 299.98304688 -175.0625 299.1875 C-176.67034157 297.65091652 -178.27583805 296.11187523 -179.87890625 294.5703125 C-181.06057373 293.43770996 -181.06057373 293.43770996 -182.26611328 292.28222656 C-184.91937983 289.64577854 -187.34424527 286.86441336 -189.77319336 284.02294922 C-192.84502372 280.53549018 -196.18363403 277.31533406 -199.5 274.0625 C-204.11825953 269.53271287 -208.5319728 264.93290516 -212.75390625 260.03125 C-215.68612958 256.72511899 -218.84410669 253.65332335 -222 250.5625 C-225.79412972 246.84659976 -229.50136566 243.11937536 -232.96875 239.09375 C-236.61066491 234.8701119 -240.52034299 230.96591837 -244.5 227.0625 C-249.1896341 222.46270564 -253.70034735 217.7973404 -257.98632812 212.81689453 C-259.16790307 211.44741105 -260.38253065 210.10642513 -261.609375 208.77734375 C-268.84347965 200.94039705 -270.03920527 195.29830221 -269.77734375 184.65625 C-269.12667503 176.22504966 -265.76041667 170.718047 -259.5 165.0625 C-252.27992008 160.37906213 -244.61460555 158.71322698 -236.25 157.22265625 C-234.26067183 156.84999072 -232.27134453 156.47732048 -230.28204918 156.10447979 C-228.1575033 155.70905584 -226.0317162 155.32097133 -223.90557861 154.9342041 C-219.4331363 154.11772746 -214.96930737 153.25902345 -210.50537109 152.39746094 C-195.75829298 149.56821335 -181.01153491 146.9281085 -166.15435791 144.74168396 C-160.25194866 143.87124353 -154.3617958 142.92779802 -148.47333145 141.96794605 C-144.42317903 141.31348074 -140.3758604 140.70266061 -136.30517578 140.18972778 C-119.27492557 138.50657031 -119.27492557 138.50657031 -104.8236084 130.47171021 C-100.30911006 124.45701214 -97.3310977 117.91975568 -94.63299561 110.93157959 C-93.23179573 107.38332754 -91.50824762 104.27333399 -89.5625 100.99609375 C-89.0480835 100.0723999 -88.53366699 99.14870605 -88.00366211 98.19702148 C-82.91520956 89.07019322 -77.73616873 80.00641475 -72.4375 71 C-67.75685513 63.03990581 -63.24463846 55.00996523 -58.875 46.875 C-54.67658599 39.0621715 -50.4348317 31.27963112 -46.0625 23.5625 C-45.35456299 22.29950073 -45.35456299 22.29950073 -44.63232422 21.01098633 C-36.73471677 7.16149795 -36.73471677 7.16149795 -30.4375 2.6875 C-29.80714844 2.22601562 -29.17679688 1.76453125 -28.52734375 1.2890625 C-20.46243555 -3.59028466 -8.61893334 -3.88723277 0 0 Z "
        fill="#FC9E19" transform="translate(269.5,1.9375)" />
    <path
        d="M0 0 C5.70852776 0 8.07437615 0.00879036 13 2 C13.969375 2.37125 14.93875 2.7425 15.9375 3.125 C23.53590907 7.77708719 27.57484351 15.28191009 31.5625 23 C35.84384659 31.07129042 40.28809492 39.00999805 44.9375 46.875 C50.24528919 55.88386074 55.30494447 64.99935198 60.24804688 74.21264648 C64.18156667 81.53064223 68.24542398 88.76197943 72.39086914 95.96166992 C77.12082804 104.18180191 81.75067727 112.45665639 86.36889648 120.73999023 C87.20916382 122.24541382 87.20916382 122.24541382 88.06640625 123.78125 C88.56084229 124.66876953 89.05527832 125.55628906 89.56469727 126.47070312 C90.03834717 127.30537109 90.51199707 128.14003906 91 129 C91.61595158 130.2674438 91.61595158 130.2674438 92.24434662 131.56049252 C94.49003343 134.68090902 95.78956206 134.88210795 99.52575684 135.56141663 C100.67513733 135.78127731 101.82451782 136.001138 103.00872803 136.22766113 C104.27106262 136.44651978 105.53339722 136.66537842 106.83398438 136.89086914 C108.17651514 137.13940201 109.51869212 137.38985246 110.86053467 137.64207458 C113.75088697 138.1811118 116.64327481 138.70650485 119.53800964 139.22148323 C124.12398465 140.03744686 128.70407976 140.88355591 133.28381348 141.73374939 C140.53857194 143.07683832 147.79685835 144.39964497 155.05689478 145.71387523 C168.02918477 148.06248364 180.99641283 150.43863168 193.96048975 152.83214086 C198.50418872 153.67011509 203.0496975 154.49716443 207.59704494 155.31509984 C210.44153409 155.82846708 213.28455653 156.34964108 216.12729645 156.87259865 C218.05269207 157.22424907 219.97983997 157.56626377 221.90704346 157.90786743 C233.72862788 160.09720211 244.97070604 162.62208572 252.34375 172.8671875 C256.87835704 180.41406922 256.72524552 188.45433587 256 197 C253.99213877 204.75227706 248.58908179 209.8488427 242.9140625 215.1640625 C240.6762566 217.27540384 238.65496384 219.50390547 236.6484375 221.8359375 C232.34470204 226.82385052 227.66115844 231.38982161 222.9609375 236 C219.04013229 239.87539047 215.34324905 243.85496085 211.74609375 248.03125 C208.22909547 251.99672457 204.39038303 255.64859394 200.60546875 259.35546875 C197.45556225 262.46624598 194.4211404 265.61359379 191.53125 268.96875 C187.26860087 273.91227222 182.61799832 278.4321549 177.9609375 283 C174.63898359 286.28347567 171.44062934 289.59572702 168.40625 293.1484375 C166.2858702 295.61940282 164.15320177 297.82492656 161.65625 299.9140625 C161.13289062 300.36652344 160.60953125 300.81898438 160.0703125 301.28515625 C159.01652683 302.18428184 157.93726734 303.05431482 156.8359375 303.89453125 C155.0240606 305.51975751 154.0725643 306.80480068 153 309 C152.35345747 322.25120076 155.63270795 336.43474454 157.34375 349.5390625 C157.67665155 352.1134199 158.00912296 354.68783296 158.34118652 357.26229858 C159.30084966 364.6956272 160.26588158 372.12825073 161.23180389 379.56076813 C162.54573775 389.67375666 163.85551609 399.78727755 165.16133118 409.9013176 C165.64697435 413.65487068 166.1360405 417.40796673 166.62536621 421.16104126 C166.92551693 423.48055203 167.22553213 425.80008034 167.52539062 428.11962891 C167.66048538 429.14852737 167.79558014 430.17742584 167.93476868 431.23750305 C171.42933337 458.40683329 171.42933337 458.40683329 163.7734375 468.95703125 C158.50186022 475.02979538 152.61832816 478.50256103 144.5546875 479.37109375 C143.34039062 479.39300781 142.12609375 479.41492188 140.875 479.4375 C139.67617188 479.47746094 138.47734375 479.51742188 137.2421875 479.55859375 C131.38464537 479.13365014 126.26843073 476.41726702 121 474 C119.66020363 473.39174132 118.32035736 472.78359257 116.98046875 472.17553711 C113.16115501 470.4339112 109.35177465 468.67142567 105.5447998 466.90301514 C102.11332805 465.30911465 98.67945009 463.72042748 95.24575806 462.13131714 C93.46469406 461.30696926 91.6837499 460.48236243 89.90292358 459.65750122 C81.02639445 455.54638308 72.13961522 451.45772891 63.25 447.375 C62.12564545 446.85841324 62.12564545 446.85841324 60.97857666 446.33139038 C52.33757386 442.36146083 43.69265615 438.40019182 35.04296875 434.44921875 C34.23165497 434.07859314 33.42034119 433.70796753 32.58444214 433.32611084 C28.69454497 431.54935854 24.80419211 429.77361474 20.91308594 427.99951172 C19.52408375 427.3655704 18.1350861 426.73161913 16.74609375 426.09765625 C16.11873825 425.81202316 15.49138275 425.52639008 14.84501648 425.23210144 C11.86892949 423.87306211 8.91367183 422.48860913 6 421 C6 420.34 6 419.68 6 419 C4.02 418.34 2.04 417.68 0 417 C0 279.39 0 141.78 0 0 Z "
        fill="#fcd8a7" transform="translate(256,1)" />
</svg>